<svg width="841" height="178" viewBox="0 0 841 178" fill="none" xmlns="http://www.w3.org/2000/svg">
<path d="M10 106C10.4 108.4 28.5 112.667 37.5 114.5L31 146.5L37.5 170C41.1667 169.167 51.4 165 63 155C74.6 145 73.8333 131.167 72 125.5C78.6667 127.833 94 133 102 135C112 137.5 116.5 102 123.5 76.5C130.5 51 122 46 108.5 25C94 10 88.5 7 67 10.5C45.5 14 50 11 37.5 25C25 39 9.50001 103 10 106Z" fill="white" stroke="black"/>
<path fill-rule="evenodd" clip-rule="evenodd" d="M78.6661 135.495L110.085 143.914L129.144 72.7868C137.33 42.2337 119.35 10.8695 88.983 2.7328C58.617 -5.4039 27.3634 12.7682 19.1767 43.3212L0.118164 114.448L31.5374 122.867L25.1845 146.576C21.6759 159.671 29.3815 173.112 42.396 176.599C55.4106 180.087 68.8046 172.299 72.3132 159.204L78.6661 135.495ZM98.611 123.899L113.434 68.5774C119.282 46.7538 106.438 24.3507 84.7483 18.5388C63.0579 12.7269 40.7339 25.707 34.8863 47.5306L20.063 102.852L51.4821 111.271L40.8941 150.786C39.7245 155.151 42.2931 159.631 46.6313 160.793C50.9695 161.956 55.4341 159.36 56.6037 154.995L67.1917 115.48L98.611 123.899Z" fill="#2EA4AB"/>
<path fill-rule="evenodd" clip-rule="evenodd" d="M15.1792 118.484L31.5377 122.867L25.1849 146.576C21.6762 159.671 29.3818 173.112 42.3964 176.599C55.411 180.087 68.8049 172.299 72.3135 159.204L78.6664 135.495L110.085 143.914L129.144 72.7867C131.039 65.7132 131.532 58.5962 130.793 51.734L114.728 61.0091C114.537 63.5219 114.111 66.0535 113.434 68.5774L98.6112 123.899L67.192 115.48L56.604 154.995C55.4344 159.36 50.9698 161.956 46.6316 160.793C42.2934 159.631 39.7249 155.15 40.8944 150.786L51.4825 111.27L35.2204 106.913L15.1792 118.484Z" fill="#5D5FEF"/>
<path fill-rule="evenodd" clip-rule="evenodd" d="M304.287 9.02611V170.306H328.407V9.02611H304.287ZM278.187 36.0261V15.5061H191.967V142.046L295.287 136.466V116.306L216.087 119.726V36.0261H278.187ZM474.268 9.02611V170.306H498.388V9.02611H474.268ZM361.048 15.5061V140.066H448.348V15.5061H361.048ZM424.228 119.546H385.168V36.0261H424.228V119.546ZM534.808 120.626L520.588 121.166V142.406L610.228 137.186V117.026L594.928 117.746L596.368 46.1061H572.968L571.708 118.826L558.028 119.546L556.768 46.1061H533.368L534.808 120.626ZM617.428 65.3661H601.768V86.2461H617.428V166.166H640.828V10.8261H617.428V65.3661ZM648.568 9.02611V170.126H672.328V9.02611H648.568ZM523.828 37.1061H605.908V16.5861H523.828V37.1061ZM794.068 93.626C796.708 86.7861 798.028 79.3461 798.028 71.3061C798.028 63.2661 796.708 55.8861 794.068 49.1661C791.428 42.3261 787.768 36.5061 783.088 31.7061C778.408 26.7861 772.888 23.0061 766.528 20.3661C760.168 17.6061 753.268 16.2261 745.828 16.2261C738.388 16.2261 731.488 17.6061 725.128 20.3661C718.768 23.0061 713.248 26.7861 708.568 31.7061C703.888 36.5061 700.228 42.3261 697.588 49.1661C694.948 55.8861 693.628 63.2661 693.628 71.3061C693.628 79.3461 694.948 86.7861 697.588 93.626C700.228 100.346 703.888 106.166 708.568 111.086C713.248 115.886 718.768 119.666 725.128 122.426C731.488 125.066 738.388 126.386 745.828 126.386C753.268 126.386 760.168 125.066 766.528 122.426C772.888 119.666 778.408 115.886 783.088 111.086C787.768 106.166 791.428 100.346 794.068 93.626ZM771.748 57.2661C773.188 61.4661 773.908 66.1461 773.908 71.3061C773.908 76.5861 773.188 81.3261 771.748 85.5261C770.428 89.726 768.508 93.386 765.988 96.506C763.588 99.506 760.648 101.846 757.168 103.526C753.688 105.086 749.908 105.866 745.828 105.866C741.628 105.866 737.788 105.086 734.308 103.526C730.948 101.846 728.008 99.506 725.488 96.506C723.088 93.386 721.168 89.726 719.728 85.5261C718.408 81.3261 717.748 76.5861 717.748 71.3061C717.748 66.1461 718.408 61.4661 719.728 57.2661C721.168 52.9461 723.088 49.2861 725.488 46.2861C728.008 43.1661 730.948 40.8261 734.308 39.2661C737.788 37.5861 741.628 36.7461 745.828 36.7461C749.908 36.7461 753.688 37.5861 757.168 39.2661C760.648 40.8261 763.588 43.1661 765.988 46.2861C768.508 49.2861 770.428 52.9461 771.748 57.2661ZM816.028 9.02611V170.306H840.148V9.02611H816.028Z" fill="white"/>
</svg>
