<svg width="841" height="177" viewBox="0 0 841 177" fill="none" xmlns="http://www.w3.org/2000/svg">
<path fill-rule="evenodd" clip-rule="evenodd" d="M78.5479 134.884L109.967 143.303L129.026 72.1756C137.212 41.6225 119.232 10.2583 88.8648 2.12164C58.4988 -6.01506 27.2452 12.157 19.0585 42.71L0 113.837L31.4192 122.256L25.0663 145.965C21.5577 159.06 29.2633 172.501 42.2778 175.988C55.2924 179.476 68.6864 171.688 72.195 158.593L78.5479 134.884ZM98.4928 123.288L113.316 67.9662C119.164 46.1426 106.32 23.7395 84.6301 17.9276C62.9397 12.1157 40.6157 25.0958 34.7681 46.9194L19.9448 102.241L51.3639 110.66L40.7759 150.175C39.6063 154.54 42.1749 159.02 46.5131 160.182C50.8513 161.345 55.3159 158.749 56.4855 154.384L67.0735 114.869L98.4928 123.288Z" fill="#2EA4AB"/>
<path fill-rule="evenodd" clip-rule="evenodd" d="M15.061 117.873L31.4195 122.256L25.0667 145.965C21.558 159.06 29.2636 172.501 42.2782 175.988C55.2928 179.476 68.6867 171.688 72.1953 158.593L78.5482 134.884L109.967 143.303L129.026 72.1756C130.921 65.1021 131.414 57.9851 130.675 51.1229L114.61 60.398C114.419 62.9108 113.993 65.4424 113.316 67.9663L98.493 123.288L67.0738 114.869L56.4858 154.384C55.3162 158.749 50.8516 161.345 46.5134 160.182C42.1752 159.02 39.6067 154.539 40.7762 150.175L51.3643 110.659L35.1022 106.302L15.061 117.873Z" fill="#2EA4AB"/>
<path fill-rule="evenodd" clip-rule="evenodd" d="M304.169 8.41492V169.695H328.289V8.41492H304.169ZM278.069 35.4149V14.8949H191.849V141.435L295.169 135.855V115.695L215.969 119.115V35.4149H278.069ZM474.15 8.41492V169.695H498.27V8.41492H474.15ZM360.93 14.8949V139.455H448.23V14.8949H360.93ZM424.11 118.935H385.05V35.4149H424.11V118.935ZM534.69 120.015L520.47 120.555V141.795L610.11 136.575V116.415L594.81 117.135L596.25 45.4949H572.85L571.59 118.215L557.91 118.935L556.65 45.4949H533.25L534.69 120.015ZM617.31 64.7549H601.65V85.6349H617.31V165.555H640.71V10.2149H617.31V64.7549ZM648.45 8.41492V169.515H672.21V8.41492H648.45ZM523.71 36.4949H605.79V15.9749H523.71V36.4949ZM793.95 93.0148C796.59 86.1749 797.91 78.7349 797.91 70.6949C797.91 62.6549 796.59 55.2749 793.95 48.5549C791.31 41.7149 787.65 35.8949 782.97 31.0949C778.29 26.1749 772.77 22.3949 766.41 19.7549C760.05 16.9949 753.15 15.6149 745.71 15.6149C738.27 15.6149 731.37 16.9949 725.01 19.7549C718.65 22.3949 713.13 26.1749 708.45 31.0949C703.77 35.8949 700.11 41.7149 697.47 48.5549C694.83 55.2749 693.51 62.6549 693.51 70.6949C693.51 78.7349 694.83 86.1749 697.47 93.0148C700.11 99.7348 703.77 105.555 708.45 110.475C713.13 115.275 718.65 119.055 725.01 121.815C731.37 124.455 738.27 125.775 745.71 125.775C753.15 125.775 760.05 124.455 766.41 121.815C772.77 119.055 778.29 115.275 782.97 110.475C787.65 105.555 791.31 99.7348 793.95 93.0148ZM771.63 56.6549C773.07 60.8549 773.79 65.5349 773.79 70.6949C773.79 75.9749 773.07 80.7149 771.63 84.9149C770.31 89.1148 768.39 92.7748 765.87 95.8948C763.47 98.8948 760.53 101.235 757.05 102.915C753.57 104.475 749.79 105.255 745.71 105.255C741.51 105.255 737.67 104.475 734.19 102.915C730.83 101.235 727.89 98.8948 725.37 95.8948C722.97 92.7748 721.05 89.1148 719.61 84.9149C718.29 80.7149 717.63 75.9749 717.63 70.6949C717.63 65.5349 718.29 60.8549 719.61 56.6549C721.05 52.3349 722.97 48.6749 725.37 45.6749C727.89 42.5549 730.83 40.2149 734.19 38.6549C737.67 36.9749 741.51 36.1349 745.71 36.1349C749.79 36.1349 753.57 36.9749 757.05 38.6549C760.53 40.2149 763.47 42.5549 765.87 45.6749C768.39 48.6749 770.31 52.3349 771.63 56.6549ZM815.91 8.41492V169.695H840.03V8.41492H815.91Z" fill="#2EA4AB"/>
</svg>
