<svg width="841" height="177" viewBox="0 0 841 177" fill="none" xmlns="http://www.w3.org/2000/svg">
<path d="M10 105.21C10.4 107.61 28.5 111.876 37.5 113.71L31 145.71L37.5 169.21C41.1667 168.376 51.4 164.21 63 154.21C74.6 144.21 73.8333 130.376 72 124.71C78.6667 127.043 94 132.21 102 134.21C112 136.71 116.5 101.21 123.5 75.7095C130.5 50.2095 122 45.2095 108.5 24.2095C94 9.20952 88.5 6.20952 67 9.70952C45.5 13.2095 50 10.2095 37.5 24.2095C25 38.2095 9.50001 102.21 10 105.21Z" fill="white" stroke="black"/>
<path fill-rule="evenodd" clip-rule="evenodd" d="M78.6661 134.705L110.085 143.124L129.144 71.9963C137.33 41.4432 119.35 10.079 88.983 1.94232C58.617 -6.19438 27.3634 11.9777 19.1767 42.5307L0.118164 113.658L31.5374 122.077L25.1845 145.786C21.6759 158.881 29.3815 172.322 42.396 175.809C55.4106 179.297 68.8046 171.509 72.3132 158.414L78.6661 134.705ZM98.611 123.109L113.434 67.7869C119.282 45.9633 106.438 23.5602 84.7483 17.7483C63.0579 11.9364 40.7339 24.9165 34.8863 46.7401L20.063 102.062L51.4821 110.481L40.8941 149.996C39.7245 154.361 42.2931 158.841 46.6313 160.003C50.9695 161.166 55.4341 158.57 56.6037 154.205L67.1917 114.69L98.611 123.109Z" fill="#2EA4AB"/>
<path fill-rule="evenodd" clip-rule="evenodd" d="M15.1792 117.694L31.5377 122.077L25.1849 145.786C21.6762 158.881 29.3818 172.322 42.3964 175.809C55.411 179.297 68.8049 171.509 72.3135 158.414L78.6664 134.705L110.085 143.124L129.144 71.9962C131.039 64.9227 131.532 57.8057 130.793 50.9435L114.728 60.2186C114.537 62.7314 114.111 65.263 113.434 67.7869L98.6112 123.109L67.192 114.69L56.604 154.205C55.4344 158.57 50.9698 161.166 46.6316 160.003C42.2934 158.841 39.7249 154.36 40.8944 149.996L51.4825 110.48L35.2204 106.123L15.1792 117.694Z" fill="#5D5FEF"/>
<path fill-rule="evenodd" clip-rule="evenodd" d="M304.287 8.2356V169.516H328.407V8.2356H304.287ZM278.187 35.2356V14.7156H191.967V141.255L295.287 135.675V115.515L216.087 118.935V35.2356H278.187ZM474.268 8.2356V169.516H498.388V8.2356H474.268ZM361.048 14.7156V139.275H448.348V14.7156H361.048ZM424.228 118.756H385.168V35.2356H424.228V118.756ZM534.808 119.836L520.588 120.375V141.616L610.228 136.396V116.235L594.928 116.955L596.368 45.3156H572.968L571.708 118.035L558.028 118.756L556.768 45.3156H533.368L534.808 119.836ZM617.428 64.5756H601.768V85.4556H617.428V165.375H640.828V10.0356H617.428V64.5756ZM648.568 8.2356V169.336H672.328V8.2356H648.568ZM523.828 36.3156H605.908V15.7956H523.828V36.3156ZM794.068 92.8355C796.708 85.9956 798.028 78.5556 798.028 70.5156C798.028 62.4756 796.708 55.0956 794.068 48.3756C791.428 41.5356 787.768 35.7156 783.088 30.9156C778.408 25.9956 772.888 22.2156 766.528 19.5756C760.168 16.8156 753.268 15.4356 745.828 15.4356C738.388 15.4356 731.488 16.8156 725.128 19.5756C718.768 22.2156 713.248 25.9956 708.568 30.9156C703.888 35.7156 700.228 41.5356 697.588 48.3756C694.948 55.0956 693.628 62.4756 693.628 70.5156C693.628 78.5556 694.948 85.9956 697.588 92.8355C700.228 99.5555 703.888 105.375 708.568 110.295C713.248 115.095 718.768 118.875 725.128 121.635C731.488 124.275 738.388 125.595 745.828 125.595C753.268 125.595 760.168 124.275 766.528 121.635C772.888 118.875 778.408 115.095 783.088 110.295C787.768 105.375 791.428 99.5555 794.068 92.8355ZM771.748 56.4756C773.188 60.6756 773.908 65.3556 773.908 70.5156C773.908 75.7956 773.188 80.5356 771.748 84.7356C770.428 88.9355 768.508 92.5955 765.988 95.7155C763.588 98.7155 760.648 101.055 757.168 102.735C753.688 104.295 749.908 105.075 745.828 105.075C741.628 105.075 737.788 104.295 734.308 102.735C730.948 101.055 728.008 98.7155 725.488 95.7155C723.088 92.5955 721.168 88.9355 719.728 84.7356C718.408 80.5356 717.748 75.7956 717.748 70.5156C717.748 65.3556 718.408 60.6756 719.728 56.4756C721.168 52.1556 723.088 48.4956 725.488 45.4956C728.008 42.3756 730.948 40.0356 734.308 38.4756C737.788 36.7956 741.628 35.9556 745.828 35.9556C749.908 35.9556 753.688 36.7956 757.168 38.4756C760.648 40.0356 763.588 42.3756 765.988 45.4956C768.508 48.4956 770.428 52.1556 771.748 56.4756ZM816.028 8.2356V169.516H840.148V8.2356H816.028Z" fill="#5D5FEF"/>
</svg>
